{
  "source": "C:\\Users\\Peter\\Desktop\\stuff\\MIUN\\quantitative_research\\video_compression\\videos\\BVI-HD\\Toys_1920x1080_30fps.mp4",
  "output": "C:\\Users\\Peter\\Desktop\\stuff\\MIUN\\quantitative_research\\video_compression\\compressed_videos\\BVI-HD\\vp9\\12\\Toys_1920x1080_30fps_vp9.webm",
  "codec": "vp9",
  "ok": "Input #0, mov,mp4,m4a,3gp,3g2,mj2, from 'C:\\Users\\Peter\\Desktop\\stuff\\MIUN\\quantitative_research\\video_compression\\videos\\BVI-HD\\Toys_1920x1080_30fps.mp4':\n  Metadata:\n    major_brand     : isom\n    minor_version   : 512\n    compatible_brands: isomiso2avc1mp41\n    encoder         : Lavf54.28.101\n  Duration: 00:00:05.00, start: 0.000000, bitrate: 270887 kb/s\n  Stream #0:0[0x1](und): Video: h264 (High 4:4:4 Predictive) (avc1 / 0x31637661), yuv420p(progressive), 1920x1080, 270883 kb/s, 30 fps, 30 tbr, 30 tbn (default)\n    Metadata:\n      handler_name    : VideoHandler\n      vendor_id       : [0][0][0][0]\n[out#0/webm @ 000001a3c695f840] Codec AVOption b:a (set bitrate (in bits/s)) has not been used for any stream. The most likely reason is either wrong type (e.g. a video option with no video streams) or that it is a private option of some decoder which was not actually used for any stream.\nStream mapping:\n  Stream #0:0 -> #0:0 (h264 (native) -> vp9 (libvpx-vp9))\nPress [q] to stop, [?] for help\n[libvpx-vp9 @ 000001a3c6760840] v1.15.2-100-g40561f514\nOutput #0, webm, to 'C:\\Users\\Peter\\Desktop\\stuff\\MIUN\\quantitative_research\\video_compression\\compressed_videos\\BVI-HD\\vp9\\12\\Toys_1920x1080_30fps_vp9.webm':\n  Metadata:\n    major_brand     : isom\n    minor_version   : 512\n    compatible_brands: isomiso2avc1mp41\n    encoder         : Lavf62.3.100\n  Stream #0:0(und): Video: vp9, yuv420p(tv, progressive), 1920x1080, q=2-31, 12000 kb/s, 30 fps, 1k tbn (default)\n    Metadata:\n      encoder         : Lavc62.11.100 libvpx-vp9\n      handler_name    : VideoHandler\n      vendor_id       : [0][0][0][0]\n    Side data:\n      cpb: bitrate max/min/avg: 0/0/0 buffer size: 12000000 vbv_delay: N/A\nframe=    0 fps=0.0 q=0.0 size=       0KiB time=N/A bitrate=N/A speed=N/A elapsed=0:00:00.51    \nframe=    1 fps=0.9 q=12.0 size=       1KiB time=00:00:00.03 bitrate= 152.2kbits/s speed=0.031x elapsed=0:00:01.07    \nframe=    3 fps=1.9 q=45.0 size=       1KiB time=00:00:00.10 bitrate=  50.7kbits/s speed=0.0621x elapsed=0:00:01.61    \nframe=    6 fps=2.8 q=33.0 size=       1KiB time=00:00:00.16 bitrate=  30.4kbits/s speed=0.0773x elapsed=0:00:02.15    \nframe=    8 fps=2.9 q=32.0 size=       1KiB time=00:00:00.26 bitrate=  19.0kbits/s speed=0.0973x elapsed=0:00:02.74    \nframe=   10 fps=3.0 q=32.0 size=       1KiB time=00:00:00.33 bitrate=  15.2kbits/s speed=0.101x elapsed=0:00:03.29    \nframe=   13 fps=3.4 q=30.0 size=       1KiB time=00:00:00.43 bitrate=  11.7kbits/s speed=0.112x elapsed=0:00:03.85    \nframe=   15 fps=3.4 q=31.0 size=       1KiB time=00:00:00.50 bitrate=  10.1kbits/s speed=0.113x elapsed=0:00:04.42    \nframe=   17 fps=3.4 q=31.0 size=       1KiB time=00:00:00.56 bitrate=   9.0kbits/s speed=0.115x elapsed=0:00:04.94    \nframe=   19 fps=3.5 q=31.0 size=       1KiB time=00:00:00.63 bitrate=   8.0kbits/s speed=0.116x elapsed=0:00:05.47    \nframe=   21 fps=3.5 q=12.0 size=       1KiB time=00:00:00.70 bitrate=   7.2kbits/s speed=0.117x elapsed=0:00:06.00    \nframe=   24 fps=3.7 q=30.0 size=       1KiB time=00:00:00.80 bitrate=   6.3kbits/s speed=0.123x elapsed=0:00:06.51    \nframe=   27 fps=3.8 q=31.0 size=       1KiB time=00:00:00.90 bitrate=   5.6kbits/s speed=0.127x elapsed=0:00:07.09    \nframe=   30 fps=3.9 q=32.0 size=       1KiB time=00:00:01.00 bitrate=   5.1kbits/s speed=0.131x elapsed=0:00:07.66    \nframe=   32 fps=3.9 q=31.0 size=       1KiB time=00:00:01.06 bitrate=   4.8kbits/s speed=0.13x elapsed=0:00:08.22    \nframe=   36 fps=4.1 q=31.0 size=       1KiB time=00:00:01.16 bitrate=   4.3kbits/s speed=0.133x elapsed=0:00:08.75    \nframe=   38 fps=4.1 q=31.0 size=       1KiB time=00:00:01.26 bitrate=   4.0kbits/s speed=0.136x elapsed=0:00:09.29    \nframe=   41 fps=4.2 q=20.0 size=       1KiB time=00:00:01.36 bitrate=   3.7kbits/s speed=0.139x elapsed=0:00:09.81    \nframe=   43 fps=4.2 q=29.0 size=       1KiB time=00:00:01.43 bitrate=   3.5kbits/s speed=0.138x elapsed=0:00:10.35    \nframe=   44 fps=4.0 q=30.0 size=       1KiB time=00:00:01.46 bitrate=   3.5kbits/s speed=0.134x elapsed=0:00:10.94    \nframe=   46 fps=4.0 q=30.0 size=       1KiB time=00:00:01.53 bitrate=   3.3kbits/s speed=0.134x elapsed=0:00:11.48    \nframe=   46 fps=3.8 q=30.0 size=       1KiB time=00:00:01.53 bitrate=   3.3kbits/s speed=0.127x elapsed=0:00:12.03    \nframe=   49 fps=3.9 q=28.0 size=       1KiB time=00:00:01.60 bitrate=   3.2kbits/s speed=0.126x elapsed=0:00:12.68    \nframe=   51 fps=3.8 q=30.0 size=       1KiB time=00:00:01.70 bitrate=   3.0kbits/s speed=0.128x elapsed=0:00:13.27    \nframe=   53 fps=3.8 q=18.0 size=       1KiB time=00:00:01.76 bitrate=   2.9kbits/s speed=0.128x elapsed=0:00:13.85    \nframe=   56 fps=3.9 q=30.0 size=       1KiB time=00:00:01.86 bitrate=   2.7kbits/s speed=0.13x elapsed=0:00:14.37    \nframe=   58 fps=3.9 q=30.0 size=       1KiB time=00:00:01.93 bitrate=   2.6kbits/s speed=0.129x elapsed=0:00:14.93    \nframe=   60 fps=3.9 q=30.0 size=       1KiB time=00:00:02.00 bitrate=   2.5kbits/s speed=0.129x elapsed=0:00:15.49    \nframe=   62 fps=3.9 q=29.0 size=       1KiB time=00:00:02.06 bitrate=   2.5kbits/s speed=0.129x elapsed=0:00:16.01    \nframe=   64 fps=3.9 q=30.0 size=       1KiB time=00:00:02.10 bitrate=   2.4kbits/s speed=0.127x elapsed=0:00:16.58    \nframe=   65 fps=3.8 q=17.0 size=       1KiB time=00:00:02.16 bitrate=   2.3kbits/s speed=0.127x elapsed=0:00:17.11    \nframe=   68 fps=3.8 q=29.0 size=       1KiB time=00:00:02.26 bitrate=   2.2kbits/s speed=0.128x elapsed=0:00:17.68    \nframe=   70 fps=3.8 q=30.0 size=       1KiB time=00:00:02.33 bitrate=   2.2kbits/s speed=0.128x elapsed=0:00:18.23    \nframe=   72 fps=3.8 q=30.0 size=       1KiB time=00:00:02.40 bitrate=   2.1kbits/s speed=0.128x elapsed=0:00:18.79    \nframe=   74 fps=3.8 q=29.0 size=       1KiB time=00:00:02.46 bitrate=   2.1kbits/s speed=0.127x elapsed=0:00:19.35    \nframe=   76 fps=3.8 q=30.0 size=       1KiB time=00:00:02.53 bitrate=   2.0kbits/s speed=0.127x elapsed=0:00:19.89    \nframe=   79 fps=3.9 q=28.0 size=       1KiB time=00:00:02.63 bitrate=   1.9kbits/s speed=0.129x elapsed=0:00:20.43    \nframe=   81 fps=3.9 q=29.0 size=       1KiB time=00:00:02.70 bitrate=   1.9kbits/s speed=0.129x elapsed=0:00:20.97    \nframe=   82 fps=3.8 q=29.0 size=       1KiB time=00:00:02.73 bitrate=   1.9kbits/s speed=0.127x elapsed=0:00:21.53    \nframe=   85 fps=3.9 q=28.0 size=       1KiB time=00:00:02.83 bitrate=   1.8kbits/s speed=0.129x elapsed=0:00:22.04    \nframe=   88 fps=3.9 q=30.0 size=       1KiB time=00:00:02.93 bitrate=   1.7kbits/s speed=0.13x elapsed=0:00:22.58    \nframe=   90 fps=3.9 q=30.0 size=       1KiB time=00:00:03.00 bitrate=   1.7kbits/s speed=0.13x elapsed=0:00:23.14    \nframe=   91 fps=3.8 q=28.0 size=       1KiB time=00:00:03.03 bitrate=   1.7kbits/s speed=0.128x elapsed=0:00:23.68    \nframe=   93 fps=3.8 q=29.0 size=       1KiB time=00:00:03.10 bitrate=   1.6kbits/s speed=0.128x elapsed=0:00:24.21    \nframe=   95 fps=3.8 q=16.0 size=       1KiB time=00:00:03.16 bitrate=   1.6kbits/s speed=0.128x elapsed=0:00:24.74    \nframe=   98 fps=3.9 q=29.0 size=       1KiB time=00:00:03.26 bitrate=   1.6kbits/s speed=0.129x elapsed=0:00:25.31    \nframe=  100 fps=3.9 q=29.0 size=       1KiB time=00:00:03.33 bitrate=   1.5kbits/s speed=0.129x elapsed=0:00:25.86    \nframe=  102 fps=3.9 q=29.0 size=       1KiB time=00:00:03.40 bitrate=   1.5kbits/s speed=0.129x elapsed=0:00:26.41    \nframe=  104 fps=3.9 q=29.0 size=       1KiB time=00:00:03.46 bitrate=   1.5kbits/s speed=0.129x elapsed=0:00:26.93    \nframe=  107 fps=3.9 q=16.0 size=       1KiB time=00:00:03.56 bitrate=   1.4kbits/s speed=0.13x elapsed=0:00:27.45    \nframe=  110 fps=3.9 q=29.0 size=    5120KiB time=00:00:03.66 bitrate=11439.0kbits/s speed=0.131x elapsed=0:00:27.98    \nframe=  112 fps=3.9 q=29.0 size=    5120KiB time=00:00:03.73 bitrate=11234.7kbits/s speed=0.131x elapsed=0:00:28.51    \nframe=  114 fps=3.9 q=29.0 size=    5120KiB time=00:00:03.80 bitrate=11037.6kbits/s speed=0.131x elapsed=0:00:29.08    \nframe=  117 fps=3.9 q=29.0 size=    5120KiB time=00:00:03.90 bitrate=10754.6kbits/s speed=0.132x elapsed=0:00:29.62    \nframe=  119 fps=3.9 q=16.0 size=    5120KiB time=00:00:03.96 bitrate=10573.9kbits/s speed=0.132x elapsed=0:00:30.15    \nframe=  122 fps=4.0 q=29.0 size=    5120KiB time=00:00:04.06 bitrate=10313.9kbits/s speed=0.133x elapsed=0:00:30.68    \nframe=  124 fps=4.0 q=17.0 size=    5120KiB time=00:00:04.10 bitrate=10230.0kbits/s speed=0.131x elapsed=0:00:31.26    \nframe=  126 fps=4.0 q=28.0 size=    5120KiB time=00:00:04.20 bitrate=9986.4kbits/s speed=0.132x elapsed=0:00:31.79    \nframe=  126 fps=3.9 q=28.0 size=    5120KiB time=00:00:04.20 bitrate=9986.4kbits/s speed=0.13x elapsed=0:00:32.34    \nframe=  126 fps=3.8 q=28.0 size=    5120KiB time=00:00:04.20 bitrate=9986.4kbits/s speed=0.128x elapsed=0:00:32.88    \nframe=  126 fps=3.8 q=28.0 size=    5120KiB time=00:00:04.20 bitrate=9986.4kbits/s speed=0.126x elapsed=0:00:33.40    \nframe=  126 fps=3.7 q=28.0 size=    5120KiB time=00:00:04.20 bitrate=9986.4kbits/s speed=0.124x elapsed=0:00:33.94    \nframe=  126 fps=3.7 q=28.0 size=    5120KiB time=00:00:04.20 bitrate=9986.4kbits/s speed=0.122x elapsed=0:00:34.48    \nframe=  126 fps=3.6 q=28.0 size=    5120KiB time=00:00:04.20 bitrate=9986.4kbits/s speed=0.12x elapsed=0:00:35.03    \nframe=  126 fps=3.5 q=28.0 size=    5120KiB time=00:00:04.20 bitrate=9986.4kbits/s speed=0.118x elapsed=0:00:35.58    \nframe=  126 fps=3.5 q=28.0 size=    5120KiB time=00:00:04.20 bitrate=9986.4kbits/s speed=0.116x elapsed=0:00:36.10    \nframe=  126 fps=3.4 q=28.0 size=    5120KiB time=00:00:04.20 bitrate=9986.4kbits/s speed=0.115x elapsed=0:00:36.63    \n[out#0/webm @ 000001a3c695f840] video:7130KiB audio:0KiB subtitle:0KiB other streams:0KiB global headers:0KiB muxing overhead: 0.026080%\nframe=  150 fps=4.1 q=28.0 Lsize=    7131KiB time=00:00:05.00 bitrate=11684.0kbits/s speed=0.136x elapsed=0:00:36.71    \n",
  "seconds": 37.312039375305176,
  "probe_out": {}
}